HIERARCHY
ROOT RootJoint
{
    OFFSET   0.000000   0.000000   0.000000
    CHANNELS 6 Xposition Yposition Zposition Xrotation Yrotation Zrotation
    JOINT pelvis_lowerback
    {
        OFFSET   0.000000   0.093605   0.000000
        CHANNELS 3 Xrotation Yrotation Zrotation
        JOINT lowerback_torso
        {
            OFFSET   0.000000   0.100000   0.000000
            CHANNELS 3 Xrotation Yrotation Zrotation
            JOINT torso_head
            {
                OFFSET   0.000000   0.282350   0.000000
                CHANNELS 3 Xrotation Yrotation Zrotation
                End Site
                {
                    OFFSET   0.000000   0.192650   0.000000
                }
            }
            JOINT rTorso_Clavicle
            {
                OFFSET  -0.001000   0.157500   0.000000
                CHANNELS 3 Xrotation Yrotation Zrotation
                JOINT rShoulder
                {
                    OFFSET  -0.117647   0.000000   0.000000
                    CHANNELS 3 Xrotation Yrotation Zrotation
                    JOINT rElbow
                    {
                        OFFSET  -0.245000   0.000000   0.000000
                        CHANNELS 3 Xrotation Yrotation Zrotation
                        JOINT rWrist
                        {
                            OFFSET  -0.240000   0.000000   0.000000
                            CHANNELS 3 Xrotation Yrotation Zrotation
                            End Site
                            {
                                OFFSET  -0.116353  -0.002500   0.000000
                            }
                        }
                    }
                }
            }
            JOINT lTorso_Clavicle
            {
                OFFSET   0.001000   0.157500   0.000000
                CHANNELS 3 Xrotation Yrotation Zrotation
                JOINT lShoulder
                {
                    OFFSET   0.117647   0.000000   0.000000
                    CHANNELS 3 Xrotation Yrotation Zrotation
                    JOINT lElbow
                    {
                        OFFSET   0.245000   0.000000   0.000000
                        CHANNELS 3 Xrotation Yrotation Zrotation
                        JOINT lWrist
                        {
                            OFFSET   0.240000   0.000000   0.000000
                            CHANNELS 3 Xrotation Yrotation Zrotation
                            End Site
                            {
                                OFFSET   0.116353  -0.002500   0.000000
                            }
                        }
                    }
                }
            }
        }
    }
    JOINT rHip
    {
        OFFSET  -0.100000  -0.051395   0.000000
        CHANNELS 3 Xrotation Yrotation Zrotation
        JOINT rKnee
        {
            OFFSET   0.000000  -0.410000   0.000000
            CHANNELS 3 Xrotation Yrotation Zrotation
            JOINT rAnkle
            {
                OFFSET   0.000000  -0.390000   0.000000
                CHANNELS 3 Xrotation Yrotation Zrotation
                JOINT rToeJoint
                {
                    OFFSET   0.000000  -0.050000   0.130000
                    CHANNELS 3 Xrotation Yrotation Zrotation
                    End Site
                    {
                        OFFSET  -0.010000   0.002000   0.060000
                    }
                }
            }
        }
    }
    JOINT lHip
    {
        OFFSET   0.100000  -0.051395   0.000000
        CHANNELS 3 Xrotation Yrotation Zrotation
        JOINT lKnee
        {
            OFFSET   0.000000  -0.410000   0.000000
            CHANNELS 3 Xrotation Yrotation Zrotation
            JOINT lAnkle
            {
                OFFSET   0.000000  -0.390000   0.000000
                CHANNELS 3 Xrotation Yrotation Zrotation
                JOINT lToeJoint
                {
                    OFFSET   0.000000  -0.050000   0.130000
                    CHANNELS 3 Xrotation Yrotation Zrotation
                    End Site
                    {
                        OFFSET   0.010000   0.002000   0.060000
                    }
                }
            }
        }
    }
}
MOTION
Frames: 17
Frame Time:   0.008333
 -3.025511   0.947167   9.155755   3.727837  -6.739186   3.583156   6.056382   5.935548  -2.846883   1.471014   4.317020  -1.539891  -1.665846  -3.674282  -0.346789   2.589877  -0.796352  -6.585364   3.886246   8.239656  55.511703 179.998093  80.247858 -179.998131  -0.263020   4.094293 -11.915444   8.153331  10.303873   5.301786  10.963042   1.786150 -58.201695 179.994818 -84.448794 179.995460  -3.950014  -2.742916  10.243367  -6.372218   0.190114  -1.931861  42.891641   0.010864  -0.002442   7.078667   0.364100   4.337226 -22.150177   0.000804   0.003063 -25.305934  -8.050747  -4.374665  26.250535  -0.018680   0.008064  -5.207361  -1.802401   1.116951  -3.820556   0.001938  -0.002154
 -3.026726   0.944750   9.166678   3.425486  -6.721915   3.526504   6.101171   5.835025  -2.909662   1.426647   4.284008  -1.473589  -1.671663  -3.508483  -0.248588   2.624198  -0.906654  -6.465482   4.109383   8.116708  55.799269 179.996593  80.343681 -179.996910  -0.221672   4.284262 -11.845715   8.021304  10.102870   5.214747  10.578939   1.714576 -58.038202 179.996420 -84.381477 179.996930  -4.013226  -2.634409  10.330034  -6.257472   0.201465  -2.256810  45.111928   0.013948  -0.006354   6.340441   0.310873   4.592357 -20.497694   0.002634  -0.002842 -24.633144  -8.222846  -4.694598  26.314174  -0.014778   0.006314  -5.433170  -1.853857   1.570279  -3.589686   0.001320  -0.002312
 -3.027926   0.941619   9.177734   3.089836  -6.675081   3.445803   6.117280   5.695742  -2.943693   1.394211   4.204142  -1.383988  -1.667518  -3.343202  -0.152791   2.680816  -1.031509  -6.322832   4.343854   7.989914  56.075925 179.994683  80.452360 -179.995294  -0.195003   4.394816 -11.775336   7.851970   9.858448   5.140111  10.169620   1.617499 -57.871930 179.997547 -84.303040 179.997980  -4.054540  -2.627451  10.383602  -6.137413   0.210639  -2.591288  47.375958   0.016985  -0.009875   5.657707   0.255565   4.829429 -19.018265   0.004356  -0.007151 -23.892200  -8.398584  -4.989933  26.521594  -0.011266   0.004693  -5.641686  -1.901531   1.994141  -3.403818   0.000929  -0.002259
 -3.029114   0.937805   9.188861   2.776324  -6.628849   3.344486   6.088150   5.529370  -2.951632   1.337137   4.088803  -1.279067  -1.666182  -3.188236  -0.061842   2.749949  -1.163648  -6.173187   4.579760   7.867473  56.342348 179.992706  80.559843 -179.993563  -0.178139   4.460331 -11.693719   7.671894   9.604361   5.075228   9.764224   1.512364 -57.713466 179.998243 -84.222008 179.998632  -4.082593  -2.684086  10.423681  -6.036154   0.226513  -2.927563  49.531533   0.019249  -0.013074   5.023186   0.200808   5.049710 -17.662953   0.005789  -0.010439 -23.119554  -8.570671  -5.243449  26.761299  -0.008377   0.003368  -5.833634  -1.947048   2.389596  -3.228616   0.000665  -0.002167
 -3.030290   0.933318   9.200004   2.494943  -6.600008   3.227203   6.024109   5.346354  -2.940108   1.254593   3.951105  -1.165621  -1.670204  -3.043924   0.024323   2.822952  -1.298004  -6.026325   4.809356   7.750041  56.594937 179.990878  80.662476 -179.991913  -0.165878   4.505877 -11.614507   7.489564   9.350612   5.018953   9.370918   1.404971 -57.563647 179.998576 -84.141183 179.998946  -4.102206  -2.778155  10.458397  -5.962528   0.249349  -3.266032  51.551406   0.020551  -0.016043   4.431490   0.146861   5.254437 -16.422362   0.006826  -0.013018 -22.333402  -8.739017  -5.456638  27.009784  -0.006061   0.002284  -6.011313  -1.990455   2.758610  -3.064861   0.000491  -0.002074
 -3.031462   0.928158   9.211127   2.245252  -6.594861   3.096693   5.936322   5.153657  -2.914563   1.153352   3.799657  -1.048064  -1.678655  -2.909685   0.105945   2.895255  -1.431211  -5.886897   5.028732   7.637841  56.831962 179.989335  80.759139 -179.990482  -0.155656   4.543098 -11.545835   7.308814   9.101502   4.970597   8.992801   1.297995 -57.422082 179.998628 -84.061913 179.998991  -4.115850  -2.895914  10.490701  -5.917937   0.278275  -3.605046  53.434890   0.020946  -0.018710   3.879156   0.093989   5.444729 -15.287370   0.007448  -0.015014 -21.545000  -8.903646  -5.634108  27.260217  -0.004225   0.001386  -6.176052  -2.031870   3.102966  -2.912529   0.000382  -0.001992
 -3.032637   0.922325   9.222204   2.024639  -6.614241   2.954724   5.833736   4.955979  -2.879277   1.040370   3.640128  -0.929316  -1.690169  -2.784846   0.183180   2.964855  -1.561295  -5.756521   5.236403   7.531016  57.053274 179.988140  80.849641 -179.989342  -0.146352   4.576934 -11.490044   7.131889   8.859406   4.929445   8.631313   1.192934 -57.288311 179.998477 -83.984916 179.998841  -4.124978  -3.029422  10.521512  -5.900855   0.312188  -3.941633  55.187840   0.020590  -0.020969   3.363363   0.042448   5.621616 -14.249199   0.007693  -0.016482 -20.762704  -9.064244  -5.780928  27.509298  -0.002782   0.000639  -6.328905  -2.071387   3.424310  -2.771159   0.000317  -0.001921
 -3.033793   0.915694   9.232705   1.755865  -6.630781   2.838698   5.957280   4.698643  -2.879581   0.869710   3.541738  -0.868912  -1.847740  -2.597488   0.220896   2.986501  -1.681664  -5.655858   5.483478   7.287288  57.282088 179.973018  81.288302 -179.975170  -0.022441   4.932532 -11.475620   6.898855   8.502546   4.899175   8.024218   0.973471 -56.923714 179.996039 -83.782267 179.996907  -4.101417  -2.919267  10.591817  -6.114571   0.307776  -4.331971  57.199395   0.019966  -0.024728   2.641518  -0.148299   5.732944 -13.211787   0.008357  -0.019180 -20.140133  -9.151323  -5.993499  28.671810   0.000785  -0.001331  -7.936928  -2.099538   3.866219  -2.377362  -0.000173  -0.002124
 -3.034981   0.908406   9.243073   1.480796  -6.668651   2.718306   6.102710   4.409880  -2.892135   0.725740   3.401500  -0.813580  -1.998535  -2.415480   0.246568   3.025316  -1.798416  -5.549906   5.734911   7.043405  57.487210 179.957969  81.740873 -179.960890   0.062995   5.080712 -11.476627   6.619443   8.106892   4.911431   7.391551   0.741551 -56.549998 179.992693 -83.575433 179.994085  -4.053952  -2.915801  10.696814  -6.434302   0.316149  -4.721211  59.113073   0.018698  -0.027717   1.967554  -0.329603   5.833728 -12.281095   0.008424  -0.020753 -19.441230  -9.238580  -6.196307  29.916756   0.003826  -0.003349  -9.445952  -2.135786   4.278061  -2.110148  -0.000315  -0.002181
 -3.036188   0.900469   9.253371   1.222052  -6.734217   2.583510   6.240455   4.094024  -2.901661   0.595264   3.223810  -0.756262  -2.137426  -2.245343   0.267911   3.074953  -1.920047  -5.446893   5.984711   6.808989  57.678563 179.943775  82.173452 -179.947260   0.129449   5.140141 -11.472481   6.330402   7.706098   4.943209   6.771592   0.508912 -56.189448 179.989038 -83.373404 179.990867  -3.993946  -2.981818  10.812673  -6.843818   0.337326  -5.094198  60.880375   0.016877  -0.029804   1.337627  -0.500116   5.925289 -11.433584   0.008069  -0.021525 -18.670550  -9.332479  -6.374740  31.135071   0.006134  -0.005296 -10.851669  -2.179343   4.661651  -1.862754  -0.000324  -0.002279
 -3.037408   0.891874   9.263615   0.983920  -6.828821   2.434072   6.367092   3.759682  -2.905391   0.473337   3.019295  -0.696906  -2.266375  -2.087258   0.287380   3.130892  -2.047264  -5.350123   6.229263   6.583966  57.857141 179.930756  82.581129 -179.934614   0.186755   5.163774 -11.472282   6.044879   7.311977   4.984074   6.176644   0.279870 -55.847894 179.985561 -83.179287 179.987708  -3.927985  -3.085729  10.925063  -7.326389   0.369385  -5.448459  62.502446   0.014708  -0.031078   0.748261  -0.660307   6.008594 -10.662008   0.007428  -0.021693 -17.846718  -9.432053  -6.531286  32.307940   0.007798  -0.007131 -12.161811  -2.228593   5.018763  -1.632616  -0.000247  -0.002405
 -3.038219   0.885584   9.272779   0.716556  -6.503384   2.804419   6.730589   3.222638  -3.279176   0.424001   2.660412  -0.815412  -2.409896  -1.947941   0.292107   3.192951  -2.147717  -5.074599   6.459848   6.375016  58.081739 179.924976  83.010954 -179.929887   0.215946   5.028999 -11.532626   5.712256   6.796495   4.892408   5.546532   0.012977 -55.541531 179.983611 -83.047445 179.985542  -3.883762  -3.065009  11.023863  -7.829722   0.447829  -6.217428  63.869258   0.015832  -0.027217   0.200910  -0.814697   6.082618  -9.917589   0.008122  -0.019154 -17.558253  -9.376391  -7.128112  33.805490   0.009337  -0.003850 -15.418893  -2.169426   4.902231  -1.140034   0.000826  -0.000111
 -3.038928   0.880531   9.281707   0.391966  -6.182689   3.162711   7.125835   2.732668  -3.556267   0.471903   2.310583  -0.954297  -2.518227  -1.815024   0.282888   3.272995  -2.249701  -4.832621   6.697004   6.184501  58.297886 179.923978  83.412116 -179.929714   0.229761   4.847558 -11.521302   5.412989   6.293009   4.763736   4.967715  -0.270216 -55.308213 179.981741 -82.911645 179.983442  -3.846858  -3.051503  10.982139  -8.334253   0.588565  -6.855118  65.094225   0.016178  -0.022610  -0.312874  -0.961277   6.146856  -9.241558   0.008265  -0.016132 -17.237946  -9.328845  -7.707241  35.172389   0.010240  -0.001461 -17.778470  -2.256222   4.886778  -0.967714   0.000898   0.000224
 -3.039891   0.876998   9.289997   0.249129  -6.002611   3.390810   7.485327   2.331975  -3.733601   0.412477   2.090900  -1.020579  -2.634586  -1.571869   0.161258   3.379613  -2.422404  -4.670729   7.061767   5.959017  58.405432 179.926491  83.774659 -179.932327   0.213170   4.714452 -11.432903   5.130689   5.800364   4.793825   4.327408  -0.650183 -55.060105 179.978912 -82.744355 179.980766  -3.828929  -2.896321  10.816297  -9.261156   0.758629  -7.208367  66.173257   0.014488  -0.018498  -1.018227  -1.159159   6.059077  -8.685459   0.007891  -0.013402 -16.879899  -9.251897  -8.011431  36.042958   0.009497  -0.000194 -19.507436  -2.308930   4.609385  -0.674479   0.001660   0.000677
 -3.041025   0.874675   9.298141   0.071386  -5.939645   3.545057   7.880363   1.963685  -3.864529   0.389227   1.893498  -1.048740  -2.738872  -1.335073   0.040227   3.489625  -2.598750  -4.565451   7.417350   5.734911  58.480453 179.927949  84.115579 -179.933647   0.193369   4.560304 -11.324729   4.846486   5.340889   4.905284   3.707918  -1.001105 -54.790913 179.976033 -82.568436 179.978240  -3.794891  -2.817127  10.702242 -10.279748   0.901709  -7.427465  67.122146   0.011701  -0.015346  -1.684855  -1.341153   5.975463  -8.210020   0.006727  -0.011225 -16.478521  -9.216182  -8.228128  36.822909   0.008346  -0.000043 -20.613227  -2.381538   4.483893  -0.626741   0.001418   0.000542
 -3.042317   0.872969   9.306323  -0.110463  -5.950791   3.595993   8.237204   1.609186  -3.916953   0.382545   1.700014  -1.029117  -2.825182  -1.113254  -0.070726   3.598568  -2.787437  -4.521610   7.760010   5.511948  58.528593 179.927481  84.426718 -179.932850   0.176004   4.419741 -11.231349   4.577331   4.928836   5.080395   3.125940  -1.319867 -54.512195 179.973589 -82.387394 179.976260  -3.746445  -2.812193  10.639207 -11.365599   1.003220  -7.508422  67.987840   0.008677  -0.012919  -2.311106  -1.507752   5.897023  -7.790552   0.005330  -0.009491 -15.912265  -9.204242  -8.302197  37.345115   0.007063  -0.000111 -21.586248  -2.411975   4.384435  -0.590069   0.001192   0.000434
 -3.043705   0.871675   9.314576  -0.299730  -5.997574   3.591484   8.562218   1.255949  -3.929701   0.378201   1.500703  -0.979251  -2.901234  -0.906875  -0.170828   3.703658  -2.985062  -4.513716   8.086918   5.290060  58.558076 179.925561  84.713518 -179.930528   0.161403   4.293851 -11.176758   4.321164   4.552637   5.291835   2.577793  -1.611039 -54.229618 179.972028 -82.209894 179.975136  -3.689335  -2.851222  10.622413 -12.475210   1.075855  -7.521878  68.783578   0.005955  -0.010999  -2.897929  -1.660872   5.823348  -7.415262   0.004021  -0.008076 -15.267422  -9.208171  -8.306687  37.748864   0.005901  -0.000216 -22.405331  -2.424834   4.323533  -0.691427   0.000830   0.000359
